<?xml version="1.0" standalone="no"?>
<!DOCTYPE svg PUBLIC "-//W3C//DTD SVG 20010904//EN"
 "http://www.w3.org/TR/2001/REC-SVG-20010904/DTD/svg10.dtd">
<svg version="1.0" xmlns="http://www.w3.org/2000/svg"
 width="225.000000pt" height="225.000000pt" viewBox="0 0 225.000000 225.000000"
 preserveAspectRatio="xMidYMid meet">
<metadata>
Created by potrace 1.16, written by Peter Selinger 2001-2019
</metadata>
<g transform="translate(0.000000,225.000000) scale(0.100000,-0.100000)"
fill="#ffff" stroke="none">
<path d="M788 1983 c-26 -17 -48 -58 -48 -92 0 -9 -28 -34 -62 -56 -73 -47
-172 -141 -215 -206 -91 -134 -152 -310 -153 -441 0 -50 3 -58 19 -58 16 0 19
11 25 83 9 98 28 180 61 252 28 60 30 69 13 59 -7 -4 -8 -3 -4 5 4 6 11 9 16
6 4 -3 27 25 50 61 50 75 166 186 227 217 41 20 44 20 78 4 34 -16 49 -15 91
5 66 31 54 142 -18 167 -40 14 -48 14 -80 -6z"/>
<path d="M1105 1960 c-12 -19 5 -27 72 -34 192 -18 360 -96 489 -224 282 -282
309 -721 63 -1032 -128 -162 -322 -270 -512 -286 -68 -6 -75 -5 -81 12 -8 25
-57 54 -91 54 -39 0 -95 -59 -95 -100 0 -41 56 -100 94 -100 38 0 80 24 94 54
10 22 18 26 57 26 179 0 429 128 560 287 358 434 195 1087 -323 1295 -123 49
-309 77 -327 48z"/>
<path d="M988 1714 c-103 -24 -278 -131 -278 -169 0 -28 21 -25 63 8 95 77
170 111 281 126 84 12 208 -5 281 -37 68 -31 161 -101 206 -158 50 -61 98
-171 108 -248 l10 -70 -37 -32 c-31 -27 -37 -37 -37 -74 0 -35 6 -47 33 -71
98 -88 225 54 129 145 -28 27 -35 44 -50 119 -25 128 -72 215 -167 308 -146
145 -345 201 -542 153z"/>
<path d="M572 1480 c-55 -34 -63 -99 -18 -149 11 -12 12 -27 6 -61 -14 -71
-11 -200 5 -265 28 -105 74 -184 155 -266 118 -119 244 -171 410 -170 102 0
180 20 270 67 71 37 180 134 180 160 0 35 -32 24 -93 -32 -108 -101 -222 -147
-367 -146 -224 0 -425 145 -501 363 -17 49 -23 87 -23 164 -1 128 5 148 47
163 49 18 72 47 72 93 0 75 -79 119 -143 79z"/>
<path d="M825 1264 c-23 -25 -25 -34 -25 -138 1 -158 10 -166 184 -166 l116 0
0 30 0 29 -117 3 -118 3 0 100 0 100 118 3 117 3 0 29 0 30 -125 0 c-123 0
-126 -1 -150 -26z"/>
<path d="M1162 1278 c-16 -16 -16 -238 -1 -272 17 -36 57 -46 180 -46 l109 0
0 30 0 30 -114 0 c-95 0 -115 3 -120 16 -3 9 -6 56 -6 105 l0 89 120 0 120 0
0 30 0 30 -138 0 c-94 0 -142 -4 -150 -12z"/>
<path d="M353 885 c14 -84 117 -245 215 -337 69 -64 201 -150 226 -146 38 5
22 31 -40 67 -152 88 -260 206 -334 364 -26 55 -47 87 -57 87 -12 0 -14 -7
-10 -35z"/>
</g>
</svg>
